<svg xmlns="http://www.w3.org/2000/svg" xmlns:xlink="http://www.w3.org/1999/xlink" width="1020" height="527" viewBox="0 0 1020 527"><defs><style>.a,.b{fill:#fff;}.a{stroke:#707070;}.c{clip-path:url(#a);}.d{fill:#f9f9f9;}.e{clip-path:url(#b);}</style><clipPath id="a"><rect class="a" width="200" height="200" transform="translate(854 249)"/></clipPath><clipPath id="b"><rect class="b" width="1020" height="472" transform="translate(450.5 356)"/></clipPath></defs><g transform="translate(-450 -241)"><g class="c" transform="translate(6 -8)"><g transform="translate(890 271)"><g transform="translate(0 0)"><path class="d" d="M16.542,161.815,47.278,5.071h68.529l30.736,156.745h-7.869L109.043,9.283h-55L24.409,161.815Zm15.516,0L58.895,13.547h45.293l26.838,148.271h-8.015L114.923,117H48.16l-8.088,44.819H32.058Zm15.808,0L55.66,121.16h51.765l7.794,40.656H107.2l-6.029-36.492H61.91l-6.029,36.492Zm.809-48.983h65.441l-7.5-45.113L97.5,17.71H65.586L56.175,67.722Zm8.825-4.164,6.176-40.95,7.206-46.044H92.2L99.633,67.72l5.956,40.95Zm8.086-4.164H97.5L92.424,67.72,86.4,25.888H76.689L70.66,67.72Z" transform="translate(-16.542 -5.071)"/><g transform="translate(57.973 79.27)"><path class="d" d="M82.486,76.906a.418.418,0,0,0-.578-.454L68.691,82.187a.419.419,0,0,0,.034.782l3.842,1.291.205,4.593a.419.419,0,0,0,.8.155L75,85.835l3.939,2.659a.419.419,0,0,0,.64-.244C82.612,76.422,82.481,76.936,82.486,76.906Zm-3.252,1.62-6.341,4.958-2.867-.963ZM73.4,84.15l5.529-4.321c-4.681,5.4-4.437,5.118-4.457,5.148s.05-.126-.941,2.079Zm5.511,3.319-3.467-2.34,5.781-6.672Z" transform="translate(-68.439 -76.417)"/></g><g transform="translate(52.698 137.061)"><g transform="translate(0)"><path class="d" d="M86.2,136.322H86.12a1.222,1.222,0,0,0,.076-.41v-7.381a1.23,1.23,0,0,0-1.23-1.23H65.281a1.231,1.231,0,0,0-1.23,1.23v7.381a1.221,1.221,0,0,0,.076.41h-.076a1.23,1.23,0,0,0-1.23,1.229v8.2a1.23,1.23,0,0,0,1.23,1.23H86.2a1.231,1.231,0,0,0,1.23-1.23v-8.2A1.232,1.232,0,0,0,86.2,136.322Zm-1.64,9.842h-1.23v-5.741h3.281v4.1H86.2A1.642,1.642,0,0,0,84.555,146.165Zm-20.916-7.382h.41a1.641,1.641,0,0,0,1.642-1.642H66.92V139.6H63.639Zm1.642-4.1h-.41V131.4h3.281v4.921h-1.23A1.642,1.642,0,0,0,65.281,134.682Zm1.639-6.561h1.23v2.46H64.869v-.82h.41A1.641,1.641,0,0,0,66.92,128.121Zm18.457,6.561h-.41a1.642,1.642,0,0,0-1.64,1.642H82.1V131.4h3.282v3.279Zm.818,4.1h.41v.82H83.325v-2.462h1.23A1.641,1.641,0,0,0,86.2,138.783Zm-18.455-1.64h.82v1.329a.915.915,0,0,0-.82,0Zm1.232-4.608a.911.911,0,0,0,.818,0v3.788h-.818Zm12.3,3.788h-.82v-3.788a.915.915,0,0,0,.82,0Zm-1.642,0H70.611V131.4h9.024Zm-10.252.82H80.864V139.6H69.382Zm12.3,0h.82v1.329a.915.915,0,0,0-.82,0Zm-.82-5.331c-.166,0-.41-.319-.41-.82s.244-.82.41-.82.412.319.412.82S81.032,131.812,80.864,131.812Zm-1.23-1.23H70.611v-2.46h9.024Zm-10.252,1.23c-.168,0-.41-.319-.41-.82s.242-.82.41-.82.408.319.408.82S69.548,131.812,69.382,131.812Zm-1.23,7.382c.168,0,.41.319.41.82s-.244.82-.41.82-.41-.319-.41-.82S67.984,139.193,68.152,139.193Zm1.23,1.23H80.864v5.741H69.382Zm12.713-1.23c.168,0,.41.319.41.82s-.244.82-.41.82-.41-.319-.41-.82S81.927,139.193,82.095,139.193Zm4.511-1.64v.41H86.2a.819.819,0,0,1-.82-.82h.82A.409.409,0,0,1,86.606,137.553Zm-2.46-1.23a.819.819,0,0,1,.82-.82h.41v.41a.41.41,0,0,1-.41.41Zm1.232-7.792v.41h-.41a.82.82,0,0,1-.82-.82h.82A.411.411,0,0,1,85.377,128.531Zm-.412,1.228h.41v.82H82.093v-2.461h1.23A1.642,1.642,0,0,0,84.965,129.759Zm-3.689-1.639v1.328a.915.915,0,0,0-.82,0v-1.328Zm-11.486,0v1.328a.912.912,0,0,0-.818,0v-1.328Zm-4.509,0h.82a.821.821,0,0,1-.82.82h-.41v-.41A.407.407,0,0,1,65.281,128.121Zm-.412,7.792v-.41h.41a.82.82,0,0,1,.82.82h-.82A.41.41,0,0,1,64.869,135.912Zm-.82,1.23h.82a.82.82,0,0,1-.82.82h-.41v-.41A.411.411,0,0,1,64.049,137.143Zm-.41,8.612v-.41h.41a.82.82,0,0,1,.82.82h-.82A.411.411,0,0,1,63.639,145.754Zm.41-1.229h-.41v-4.1H66.92v5.741H65.691A1.64,1.64,0,0,0,64.049,144.526Zm3.691,1.639v-4.608a.915.915,0,0,0,.82,0v4.608Zm13.944,0v-4.608a.915.915,0,0,0,.82,0v4.608Zm4.511,0h-.82a.82.82,0,0,1,.82-.82h.41v.41A.41.41,0,0,1,86.2,146.165Z" transform="translate(-62.821 -127.301)"/><path class="d" d="M79.294,142.15h-.41a.817.817,0,0,0-.706.41H73.03a.819.819,0,0,0-.706-.41h-.41a1.231,1.231,0,0,0-1.23,1.23v.82a1.23,1.23,0,0,0,1.23,1.23h.41a.817.817,0,0,0,.706-.41h5.148a.817.817,0,0,0,.706.41h.41a1.23,1.23,0,0,0,1.23-1.23v-.82A1.23,1.23,0,0,0,79.294,142.15Zm-7.381,2.461a.41.41,0,0,1-.41-.41v-.82a.41.41,0,0,1,.41-.41h.41v1.64h-.41Zm1.23-1.23h4.921v.82H73.143Zm6.561.82a.41.41,0,0,1-.41.41h-.41v-1.64h.41a.41.41,0,0,1,.41.41Z" transform="translate(-63.301 -128.207)"/><path class="d" d="M73.222,135.822h.41a.819.819,0,0,0,.706-.41h2.689a.817.817,0,0,0,.706.41h.41a1.229,1.229,0,0,0,1.229-1.23v-.82a1.231,1.231,0,0,0-1.229-1.23h-.41a.811.811,0,0,0-.706.41H74.338a.813.813,0,0,0-.706-.41h-.41a1.23,1.23,0,0,0-1.23,1.23v.82A1.23,1.23,0,0,0,73.222,135.822Zm4.921-2.46a.41.41,0,0,1,.41.41v.82a.41.41,0,0,1-.41.41h-.41v-1.64Zm-1.23,1.23h-2.46v-.82h2.46Zm-4.1-.82a.41.41,0,0,1,.41-.41h.41V135h-.41a.41.41,0,0,1-.41-.41Z" transform="translate(-63.381 -127.621)"/></g></g></g></g></g><g class="e" transform="translate(-0.5 -60)"><g transform="translate(450.5 401.905)"><path class="d" d="M1007.282,0H598.62V2h408.661c5.853,0,10.6,4.478,10.6,10V368c0,5.522-4.746,10-10.6,10H750.344v2h256.937c7.024,0,12.718-5.373,12.718-12V12C1020,5.373,1014.3,0,1007.282,0Z" transform="translate(0 0)"/><path class="d" d="M2.12,368V12c0-5.522,4.746-10,10.6-10H421.38V0H12.718C5.694,0,0,5.373,0,12V368c0,6.627,5.694,12,12.718,12H269.656v-2H12.718C6.865,378,2.12,373.522,2.12,368Z"/></g></g></g></svg>