<svg xmlns="http://www.w3.org/2000/svg" xmlns:xlink="http://www.w3.org/1999/xlink" width="82" height="82" viewBox="0 0 82 82"><defs><style>.a{fill:#fff;stroke:#707070;}.b{clip-path:url(#a);}.c{fill:#f9f9f9;}</style><clipPath id="a"><rect class="a" width="82" height="82" transform="translate(0 0.5)"/></clipPath></defs><g class="b" transform="translate(0 -0.5)"><g transform="translate(15.109 8.94)"><g transform="translate(0 0)"><path class="c" d="M16.542,69.4,29.157,5.071H57.282L69.9,69.4H66.667L54.506,6.8H31.933L19.771,69.4Zm6.368,0L33.925,8.55H52.514L63.529,69.4h-3.29L56.919,51.008h-27.4L26.2,69.4H22.91Zm6.488,0,3.2-16.686H53.842l3.2,16.686h-3.29L51.277,54.424H35.162L32.688,69.4Zm.332-20.1H56.588L53.51,30.783,49.768,10.258h-13.1L32.808,30.784Zm3.622-1.709,2.535-16.806,2.958-18.9H47.6l3.048,18.9,2.445,16.806Zm3.319-1.709h13.1l-2.082-15.1L45.211,13.615H41.228L38.753,30.783Z" transform="translate(-16.542 -5.071)"/><g transform="translate(23.793 32.534)"><path class="c" d="M74.2,76.618a.171.171,0,0,0-.237-.186l-5.424,2.354a.172.172,0,0,0,.014.321l1.577.53.084,1.885a.172.172,0,0,0,.328.063l.584-1.3,1.617,1.091a.172.172,0,0,0,.263-.1C74.256,76.419,74.2,76.63,74.2,76.618Zm-1.335.665-2.6,2.035-1.177-.4ZM70.475,79.59l2.269-1.773c-1.921,2.217-1.821,2.1-1.829,2.113s.021-.052-.386.853Zm2.262,1.362-1.423-.96,2.373-2.738Z" transform="translate(-68.439 -76.417)"/></g><g transform="translate(21.628 56.252)"><g transform="translate(0)"><path class="c" d="M72.414,131h-.031a.5.5,0,0,0,.031-.168v-3.029a.5.5,0,0,0-.5-.5H63.831a.505.505,0,0,0-.5.5v3.029a.5.5,0,0,0,.031.168h-.031a.505.505,0,0,0-.5.5v3.366a.5.5,0,0,0,.5.5h9.089a.505.505,0,0,0,.5-.5v-3.366A.506.506,0,0,0,72.414,131Zm-.673,4.039h-.5v-2.356h1.346v1.683h-.168A.674.674,0,0,0,71.741,135.043Zm-8.584-3.029h.168a.674.674,0,0,0,.674-.674h.5v1.01H63.157Zm.674-1.683h-.168v-1.346h1.346V131h-.5A.674.674,0,0,0,63.831,130.33Zm.673-2.693h.5v1.01H63.662v-.337h.168A.673.673,0,0,0,64.5,127.637Zm7.575,2.693H71.91a.674.674,0,0,0-.673.674h-.5v-2.02h1.347v1.346Zm.336,1.683h.168v.337H71.236v-1.01h.5A.673.673,0,0,0,72.414,132.013Zm-7.574-.673h.337v.546a.376.376,0,0,0-.337,0Zm.506-1.891a.374.374,0,0,0,.336,0V131h-.336ZM70.4,131h-.337v-1.555a.375.375,0,0,0,.337,0Zm-.674,0h-3.7v-2.02h3.7Zm-4.208.337h4.713v1.01H65.514Zm5.049,0H70.9v.546a.376.376,0,0,0-.337,0Zm-.337-2.188c-.068,0-.168-.131-.168-.337s.1-.337.168-.337.169.131.169.337S70.3,129.152,70.226,129.152Zm-.5-.5h-3.7v-1.01h3.7Zm-4.208.5c-.069,0-.168-.131-.168-.337s.1-.337.168-.337.168.131.168.337S65.582,129.152,65.514,129.152Zm-.5,3.029c.069,0,.168.131.168.337s-.1.337-.168.337-.168-.131-.168-.337S64.94,132.181,65.009,132.181Zm.5.5h4.713v2.356H65.514Zm5.217-.5c.069,0,.168.131.168.337s-.1.337-.168.337-.168-.131-.168-.337S70.662,132.181,70.731,132.181Zm1.851-.673v.168h-.168a.336.336,0,0,1-.337-.337h.337A.168.168,0,0,1,72.582,131.508Zm-1.01-.5a.336.336,0,0,1,.337-.337h.168v.168a.168.168,0,0,1-.168.168Zm.506-3.2v.168H71.91a.337.337,0,0,1-.337-.337h.337A.169.169,0,0,1,72.078,127.806Zm-.169.5h.168v.337H70.73v-1.01h.5A.674.674,0,0,0,71.909,128.31Zm-1.514-.672v.545a.376.376,0,0,0-.337,0v-.545Zm-4.714,0v.545a.374.374,0,0,0-.336,0v-.545Zm-1.851,0h.337a.337.337,0,0,1-.337.337h-.168v-.168A.167.167,0,0,1,63.831,127.637Zm-.169,3.2v-.168h.168a.337.337,0,0,1,.337.337H63.83A.168.168,0,0,1,63.662,130.835Zm-.337.5h.337a.337.337,0,0,1-.337.337h-.168v-.168A.169.169,0,0,1,63.325,131.34Zm-.168,3.534v-.168h.168a.337.337,0,0,1,.337.337h-.337A.169.169,0,0,1,63.157,134.874Zm.168-.5h-.168v-1.683H64.5v2.356H64A.673.673,0,0,0,63.325,134.37Zm1.515.673v-1.891a.375.375,0,0,0,.337,0v1.891Zm5.723,0v-1.891a.375.375,0,0,0,.337,0v1.891Zm1.851,0h-.337a.337.337,0,0,1,.337-.337h.168v.168A.168.168,0,0,1,72.414,135.043Z" transform="translate(-62.821 -127.301)"/><path class="c" d="M74.218,142.15h-.168a.335.335,0,0,0-.29.168H71.647a.336.336,0,0,0-.29-.168h-.168a.505.505,0,0,0-.5.5v.337a.5.5,0,0,0,.5.5h.168a.335.335,0,0,0,.29-.168h2.113a.335.335,0,0,0,.29.168h.168a.5.5,0,0,0,.5-.5v-.337A.5.5,0,0,0,74.218,142.15Zm-3.029,1.01a.168.168,0,0,1-.168-.168v-.337a.168.168,0,0,1,.168-.168h.168v.673h-.168Zm.5-.5h2.02v.337h-2.02Zm2.693.337a.168.168,0,0,1-.168.168h-.168v-.673h.168a.168.168,0,0,1,.168.168Z" transform="translate(-67.654 -136.427)"/><path class="c" d="M72.5,133.888h.168a.336.336,0,0,0,.29-.168h1.1a.335.335,0,0,0,.29.168h.168a.5.5,0,0,0,.5-.5v-.337a.505.505,0,0,0-.5-.5h-.168a.333.333,0,0,0-.29.168h-1.1a.334.334,0,0,0-.29-.168H72.5a.5.5,0,0,0-.5.5v.337A.5.5,0,0,0,72.5,133.888Zm2.02-1.01a.168.168,0,0,1,.168.168v.337a.168.168,0,0,1-.168.168h-.168v-.673Zm-.5.5H73v-.337h1.01Zm-1.683-.337a.168.168,0,0,1,.168-.168h.168v.673H72.5a.168.168,0,0,1-.168-.168Z" transform="translate(-68.458 -130.522)"/></g></g></g></g></g></svg>