<svg xmlns="http://www.w3.org/2000/svg" xmlns:xlink="http://www.w3.org/1999/xlink" width="51.857" height="39" viewBox="0 0 51.857 39"><defs><style>.a{fill:#94373f;}.b{filter:url(#a);}</style><filter id="a" x="0" y="0" width="51.857" height="39" filterUnits="userSpaceOnUse"><feOffset dy="3" input="SourceAlpha"/><feGaussianBlur stdDeviation="1.5" result="b"/><feFlood flood-opacity="0.161"/><feComposite operator="in" in2="b"/><feComposite in="SourceGraphic"/></filter></defs><g transform="translate(4.5 1.5)"><g class="b" transform="matrix(1, 0, 0, 1, -4.5, -1.5)"><path class="a" d="M41.786,57.714H40.714a5.647,5.647,0,0,1-3.756-1.2,3.173,3.173,0,0,0-2.127-.944H33.739a3.173,3.173,0,0,0-2.127.944,5.641,5.641,0,0,1-3.755,1.2,5.647,5.647,0,0,1-3.756-1.2,3.173,3.173,0,0,0-2.127-.944H20.882a3.173,3.173,0,0,0-2.127.944A5.641,5.641,0,0,1,15,57.714a5.647,5.647,0,0,1-3.756-1.2,3.173,3.173,0,0,0-2.127-.944H8.025a3.173,3.173,0,0,0-2.127.944,5.641,5.641,0,0,1-3.755,1.2H1.071A1.071,1.071,0,0,0,0,58.786v2.143A1.071,1.071,0,0,0,1.071,62H2.143a9.985,9.985,0,0,0,6.429-2.132A9.981,9.981,0,0,0,15,62a9.985,9.985,0,0,0,6.429-2.132A9.981,9.981,0,0,0,27.857,62a9.985,9.985,0,0,0,6.429-2.132A9.981,9.981,0,0,0,40.714,62h1.071a1.071,1.071,0,0,0,1.071-1.071V58.786A1.071,1.071,0,0,0,41.786,57.714ZM15,55.571V49.143H27.857v6.429a3.669,3.669,0,0,0,2.3-.631,5.788,5.788,0,0,1,1.983-1.21v-15.3a2.143,2.143,0,1,1,4.286,0V39.5A1.071,1.071,0,0,0,37.5,40.571h2.143A1.071,1.071,0,0,0,40.714,39.5V38.429a6.429,6.429,0,1,0-12.857,0v6.429H15V38.429a2.143,2.143,0,1,1,4.286,0V39.5a1.071,1.071,0,0,0,1.071,1.071H22.5A1.071,1.071,0,0,0,23.571,39.5V38.429a6.429,6.429,0,1,0-12.857,0v15.3A5.8,5.8,0,0,1,12.7,54.94,3.663,3.663,0,0,0,15,55.571Z" transform="translate(4.5 -30.5)"/></g></g></svg>