<svg xmlns="http://www.w3.org/2000/svg" xmlns:xlink="http://www.w3.org/1999/xlink" width="42.75" height="39" viewBox="0 0 42.75 39"><defs><style>.a{fill:#94373f;}.b{filter:url(#a);}</style><filter id="a" x="0" y="0" width="42.75" height="39" filterUnits="userSpaceOnUse"><feOffset dy="3" input="SourceAlpha"/><feGaussianBlur stdDeviation="1.5" result="b"/><feFlood flood-opacity="0.161"/><feComposite operator="in" in2="b"/><feComposite in="SourceGraphic"/></filter></defs><g transform="translate(4.5 1.5)"><g class="b" transform="matrix(1, 0, 0, 1, -4.5, -1.5)"><path class="a" d="M32.813,3.75a.937.937,0,0,0,.938-.938V.938A.937.937,0,0,0,32.813,0H.938A.937.937,0,0,0,0,.938V2.813a.937.937,0,0,0,.938.938h.936v22.5H.938A.937.937,0,0,0,0,27.188v1.875A.937.937,0,0,0,.938,30H15V25.313a.94.94,0,0,1,.938-.937h1.875a.94.94,0,0,1,.938.937V30H32.813a.937.937,0,0,0,.938-.937V27.188a.937.937,0,0,0-.937-.937h-.937V3.75ZM15,6.375a.807.807,0,0,1,.75-.75H18a.807.807,0,0,1,.75.75v2.25a.807.807,0,0,1-.75.75H15.75a.807.807,0,0,1-.75-.75V6.375ZM15,12a.807.807,0,0,1,.75-.75H18a.807.807,0,0,1,.75.75v2.25A.807.807,0,0,1,18,15H15.75a.807.807,0,0,1-.75-.75V12ZM7.5,6.375a.807.807,0,0,1,.75-.75H10.5a.807.807,0,0,1,.75.75v2.25a.807.807,0,0,1-.75.75H8.25a.807.807,0,0,1-.75-.75V6.375ZM10.5,15H8.25a.807.807,0,0,1-.75-.75V12a.807.807,0,0,1,.75-.75H10.5a.807.807,0,0,1,.75.75v2.25a.807.807,0,0,1-.75.75Zm.75,7.5a5.625,5.625,0,0,1,11.25,0Zm15-8.25a.807.807,0,0,1-.75.75H23.25a.807.807,0,0,1-.75-.75V12a.807.807,0,0,1,.75-.75H25.5a.807.807,0,0,1,.75.75Zm0-5.625a.807.807,0,0,1-.75.75H23.25a.807.807,0,0,1-.75-.75V6.375a.807.807,0,0,1,.75-.75H25.5a.807.807,0,0,1,.75.75Z" transform="translate(4.5 1.5)"/></g></g></svg>