<svg xmlns="http://www.w3.org/2000/svg" xmlns:xlink="http://www.w3.org/1999/xlink" width="42.75" height="39" viewBox="0 0 42.75 39"><defs><style>.a{fill:#94373f;}.b{filter:url(#a);}</style><filter id="a" x="0" y="0" width="42.75" height="39" filterUnits="userSpaceOnUse"><feOffset dy="3" input="SourceAlpha"/><feGaussianBlur stdDeviation="1.5" result="b"/><feFlood flood-opacity="0.161"/><feComposite operator="in" in2="b"/><feComposite in="SourceGraphic"/></filter></defs><g transform="translate(4.5 1.5)"><g class="b" transform="matrix(1, 0, 0, 1, -4.5, -1.5)"><path class="a" d="M16.875,0A7.383,7.383,0,0,0,9.492,7.383c0,3.3,4.825,9.3,6.674,11.486a.924.924,0,0,0,1.418,0c1.849-2.181,6.674-8.189,6.674-11.486A7.383,7.383,0,0,0,16.875,0Zm0,9.844a2.461,2.461,0,1,1,2.461-2.461A2.461,2.461,0,0,1,16.875,9.844Zm-15.7,2.81A1.875,1.875,0,0,0,0,14.394V29.061a.938.938,0,0,0,1.286.871L9.375,26.25V12.593A17.744,17.744,0,0,1,8.13,9.873Zm15.7,8.421a2.8,2.8,0,0,1-2.139-.994c-1.152-1.359-2.377-2.907-3.486-4.5V26.249L22.5,30V15.586c-1.109,1.587-2.333,3.136-3.486,4.5A2.8,2.8,0,0,1,16.875,21.074ZM32.464,9.443l-8.089,3.682V30l8.2-3.278a1.875,1.875,0,0,0,1.179-1.741V10.314a.938.938,0,0,0-1.286-.871Z" transform="translate(4.5 1.5)"/></g></g></svg>