<svg xmlns="http://www.w3.org/2000/svg" xmlns:xlink="http://www.w3.org/1999/xlink" width="46.5" height="39" viewBox="0 0 46.5 39"><defs><style>.a{fill:#94373f;}.b{filter:url(#a);}</style><filter id="a" x="0" y="0" width="46.5" height="39" filterUnits="userSpaceOnUse"><feOffset dy="3" input="SourceAlpha"/><feGaussianBlur stdDeviation="1.5" result="b"/><feFlood flood-opacity="0.161"/><feComposite operator="in" in2="b"/><feComposite in="SourceGraphic"/></filter></defs><g transform="translate(4.5 1.5)"><g class="b" transform="matrix(1, 0, 0, 1, -4.5, -1.5)"><path class="a" d="M6.76,8.016l5.983,2.178C14.805,5.417,17.795,1.74,20.888.017A17.532,17.532,0,0,0,6.326,6.568.938.938,0,0,0,6.76,8.016Zm7.749,2.822,13.973,5.088c2.1-7.112,1.1-13.574-2.5-14.881A3.922,3.922,0,0,0,24.632.81c-3.4,0-7.516,4.053-10.123,10.028Zm16.046-7.3a13.29,13.29,0,0,1,.773,3.234,25.113,25.113,0,0,1-1.11,9.784l6.013,2.189a.937.937,0,0,0,1.264-.83A17.543,17.543,0,0,0,30.555,3.54Zm2.257,22.7h-14l3.805-10.458L19.093,14.5l-4.271,11.74H.937A.937.937,0,0,0,0,27.181v1.876a.938.938,0,0,0,.937.938H32.812a.938.938,0,0,0,.937-.938V27.181a.937.937,0,0,0-.937-.937Z" transform="translate(4.5 1.51)"/></g></g></svg>